<!-- /public/favicon.svg -->
<svg xmlns="http://www.w3.org/2000/svg" viewBox="0 0 512 512" role="img" aria-label="sardak.dev stripes">
  <defs>
    <linearGradient id="g" x1="0" x2="1">
      <stop offset="0" stop-color="#E3646E"></stop>
      <stop offset="0.25" stop-color="#F59E0B"></stop>
      <stop offset="0.50" stop-color="#38BDF8"></stop>
      <stop offset="0.75" stop-color="#22D3EE"></stop>
      <stop offset="1" stop-color="#BB72E9"></stop>
    </linearGradient>
    <!-- лёгкое смягчение краёв полосок -->
    <filter id="soft" x="-10%" y="-10%" width="120%" height="120%">
      <feGaussianBlur in="SourceAlpha" stdDeviation="1.4" result="b"></feGaussianBlur>
      <feColorMatrix in="b" type="matrix" values="0 0 0 0 0  0 0 0 0 0  0 0 0 0 0  0 0 0 0.35 0"></feColorMatrix>
      <feMerge><feMergeNode></feMergeNode><feMergeNode in="SourceGraphic"></feMergeNode></feMerge>
    </filter>
  </defs>

  <!-- тёмный фон с мягкими углами (под тёмную тему сайта) -->
  <rect x="16" y="16" width="480" height="480" rx="64" fill="#16181D"></rect>

  <!-- ТОЛЬКО цветные полоски слева/справа -->
  <g filter="url(#soft)">
    <!-- левая колонка -->
    <rect x="56" y="88" width="124" height="14" rx="7" fill="url(#g)"></rect>
    <rect x="56" y="138" width="98" height="14" rx="7" fill="url(#g)"></rect>
    <rect x="56" y="188" width="144" height="14" rx="7" fill="url(#g)"></rect>
    <rect x="56" y="238" width="108" height="14" rx="7" fill="url(#g)"></rect>
    <rect x="56" y="288" width="136" height="14" rx="7" fill="url(#g)"></rect>
    <rect x="56" y="338" width="104" height="14" rx="7" fill="url(#g)"></rect>
    <rect x="56" y="388" width="120" height="14" rx="7" fill="url(#g)"></rect>

    <!-- правая колонка -->
    <rect x="332" y="108" width="124" height="14" rx="7" fill="url(#g)"></rect>
    <rect x="354" y="158" width="100" height="14" rx="7" fill="url(#g)"></rect>
    <rect x="316" y="208" width="144" height="14" rx="7" fill="url(#g)"></rect>
    <rect x="346" y="258" width="112" height="14" rx="7" fill="url(#g)"></rect>
    <rect x="328" y="308" width="136" height="14" rx="7" fill="url(#g)"></rect>
    <rect x="348" y="358" width="116" height="14" rx="7" fill="url(#g)"></rect>
  </g>
</svg>
