<svg width="1600" height="900" viewBox="0 0 1600 900" fill="none" xmlns="http://www.w3.org/2000/svg">
  <!-- ЛЕВАЯ СТОРОНА -->
  <rect x="70" y="80" width="180" height="10" rx="5" fill="#7dd3fc" opacity="0.55"></rect>
  <rect x="120" y="140" width="120" height="10" rx="5" fill="#a855f7" opacity="0.45"></rect>
  <rect x="40" y="210" width="210" height="12" rx="6" fill="#f97316" opacity="0.5"></rect>
  <rect x="95" y="280" width="150" height="10" rx="5" fill="#22d3ee" opacity="0.4"></rect>
  <rect x="50" y="350" width="180" height="10" rx="5" fill="#38bdf8" opacity="0.45"></rect>
  <rect x="130" y="420" width="130" height="10" rx="5" fill="#f97316" opacity="0.5"></rect>
  <rect x="30" y="490" width="210" height="10" rx="5" fill="#22c55e" opacity="0.35"></rect>
  <rect x="90" y="560" width="160" height="10" rx="5" fill="#a855f7" opacity="0.45"></rect>
  <rect x="60" y="630" width="190" height="10" rx="5" fill="#0ea5e9" opacity="0.4"></rect>
  <rect x="110" y="700" width="140" height="10" rx="5" fill="#f97316" opacity="0.5"></rect>

  <!-- ПРАВАЯ СТОРОНА -->
  <rect x="1340" y="100" width="180" height="10" rx="5" fill="#0ea5e9" opacity="0.55"></rect>
  <rect x="1270" y="160" width="140" height="10" rx="5" fill="#f472b6" opacity="0.5"></rect>
  <rect x="1320" y="230" width="210" height="12" rx="6" fill="#22c55e" opacity="0.4"></rect>
  <rect x="1240" y="300" width="160" height="10" rx="5" fill="#a855f7" opacity="0.5"></rect>
  <rect x="1300" y="370" width="190" height="10" rx="5" fill="#38bdf8" opacity="0.45"></rect>
  <rect x="1245" y="440" width="150" height="10" rx="5" fill="#f97316" opacity="0.5"></rect>
  <rect x="1320" y="510" width="160" height="10" rx="5" fill="#22d3ee" opacity="0.4"></rect>
  <rect x="1260" y="580" width="200" height="10" rx="5" fill="#0ea5e9" opacity="0.4"></rect>
  <rect x="1310" y="650" width="170" height="10" rx="5" fill="#a855f7" opacity="0.5"></rect>
  <rect x="1250" y="720" width="210" height="10" rx="5" fill="#f97316" opacity="0.45"></rect>
</svg>
